<svg xmlns="http://www.w3.org/2000/svg"
	 viewBox="0 0 123.8 107.3" enable-background="new 0 0 123.8 107.3" xml:space="preserve">

<g id="Layer_1_xA0_Image_1_" mask="url(#Layer_1_xA0_Image_2_)">
	<g>
		<path d="M43.2-142.8c27,0,53.9,0,80.9,0c0,11.3,0,22.6,0,33.9c0,23.9,0,47.8,0,71.7c0,0.5,0,1,0,1.6c-0.6,0-1.1,0-1.6,0
			c-21.9,0-43.7,0-65.6,0c-18.9,0-37.7,0-56.6,0c0-5.4,0-10.9,0-16.3c0,0.1,0.1,0.1,0.1,0.2C2-45.2,6-42.1,12.6-42.1
			c4.8,0,9.6,0,14.4,0c3.2,0,6.4,0.1,9.6,0c1.2,0,2.1,0.3,3.1,0.8c14.7,7.7,29.5,7.8,44.2,0.2c1.3-0.6,2.4-1,3.9-1
			c8,0.1,16,0.1,24,0c7.2,0,12-4.8,12-12c0-18.4-0.1-36.8,0.1-55.2c0.1-6.6-5-12.2-12.1-12.1c-8,0.1-16,0-24,0c-0.3,0-0.6,0.1-1,0
			c-0.6-0.1-1.3-0.1-1.9-0.4c-7.1-4-14.8-6.1-23-6.1c-3,0-6,0.4-9.2,0.6c0-1.5,0-3.1,0-4.7c-0.1-4.9-3.3-9.1-8.1-10.4
			C44.3-142.5,43.7-142.6,43.2-142.8z"/>
		<path fill="#FFFFFF" d="M43.2-142.8c0.5,0.1,1.1,0.3,1.6,0.4c4.7,1.3,8,5.5,8.1,10.4c0,1.6,0,3.2,0,4.7c3.1-0.2,6.2-0.6,9.2-0.6
			c8.2-0.1,15.9,2,23,6.1c0.5,0.3,1.2,0.3,1.9,0.4c0.3,0,0.6,0,1,0c8,0,16,0.1,24,0c7.1-0.1,12.1,5.5,12.1,12.1
			c-0.1,18.4-0.1,36.8-0.1,55.2c0,7.2-4.8,12-12,12c-8,0-16,0.1-24,0c-1.5,0-2.6,0.3-3.9,1c-14.8,7.6-29.5,7.5-44.2-0.2
			c-1-0.5-1.9-0.8-3.1-0.8c-3.2,0.1-6.4,0-9.6,0c-4.8,0-9.6,0-14.4,0C6-42.1,2-45.2,0.4-51.6c0-0.1-0.1-0.1-0.1-0.2c0-20,0-40,0-60
			c0.1-0.3,0.2-0.5,0.3-0.8c1.2-4.4,4-7.3,8.4-8.5c0.6-0.2,1.2-0.3,1.9-0.4c0-0.5,0-0.9,0-1.4c0-2.9,0-5.8,0-8.6
			c0.1-5.4,3.4-9.7,8.5-11c0.4-0.1,0.8-0.2,1.3-0.3C28.2-142.8,35.7-142.8,43.2-142.8z M106.1-81.7c0-24.3-19.6-44-43.9-44.1
			c-24.3-0.1-44.1,19.6-44.2,43.9c-0.1,24.4,19.6,44.2,44,44.2C86.3-37.6,106.1-57.3,106.1-81.7z M34.1-44.9
			C19.6-57.1,13.2-72.4,17-91c3.8-18.6,15.8-30.1,33.8-35.6c0-1.8,0.1-3.7,0-5.6c-0.4-4.8-4-8.3-8.7-8.4c-6.8-0.1-13.6-0.1-20.4,0
			c-4.8,0.1-8.6,4-8.7,8.8c0,3.8,0,7.5,0,11.3c0,1.4-0.2,1.7-1.7,1.9c-5.3,0.6-8.4,4-8.4,9.4c0,8.8,0,17.5,0,26.3
			c0,9.7,0,19.4,0,29.1c0,4.9,3.6,8.9,8.2,8.9C18.8-44.8,26.4-44.9,34.1-44.9z M89.9-44.8c7.5,0,14.7,0,21.9,0
			c5.7,0,9.4-3.6,9.4-9.4c0-18.4,0-36.7,0-55.1c0-5.7-3.6-9.4-9.4-9.4c-6.8,0-13.7,0-20.5,0c-0.4,0-0.7,0-1.4,0
			c11.9,9.7,18.3,21.8,18.3,36.9C108.2-66.7,101.8-54.5,89.9-44.8z"/>
		<path d="M20.6-142.8c-0.4,0.1-0.8,0.2-1.3,0.3c-5.1,1.3-8.4,5.6-8.5,11c0,2.9,0,5.8,0,8.6c0,0.4,0,0.9,0,1.4
			c-0.7,0.1-1.3,0.2-1.9,0.4c-4.4,1.2-7.2,4.1-8.4,8.5c-0.1,0.3-0.2,0.5-0.3,0.8c0-10.3,0-20.6,0-31C7-142.8,13.8-142.8,20.6-142.8z
			"/>
		<path fill="#000" d="M0.2-35.5c18.9,0,37.7,0,56.6,0c21.9,0,43.7,0,65.6,0c0.5,0,0.9,0,1.6,0c0-0.6,0-1.1,0-1.6
			c0-23.9,0-47.8,0-71.7c0-11.3,0-22.6,0-33.9c0.1,0.3,0.2,0.6,0.2,1c0,9.9,0,19.8,0,29.8c0,25.6,0,51.2,0,76.8c-41,0-82,0-123,0
			C1-35.3,0.6-35.4,0.2-35.5z"/>
		<path d="M106.1-81.7c0,24.4-19.8,44.1-44.1,44c-24.3,0-44-19.9-44-44.2c0.1-24.3,19.8-43.9,44.2-43.9
			C86.5-125.7,106.1-106,106.1-81.7z M92.3-81.8c0-16.7-13.6-30.2-30.2-30.2c-16.7,0-30.3,13.6-30.2,30.3
			c0,16.8,13.6,30.2,30.3,30.2C78.9-51.6,92.4-65.1,92.3-81.8z"/>
		<path d="M34.1-44.9c-7.7,0-15.3,0.1-22.9,0c-4.6-0.1-8.2-4-8.2-8.9c0-9.7,0-19.4,0-29.1c0-8.8,0-17.5,0-26.3c0-5.4,3-8.8,8.4-9.4
			c1.4-0.2,1.7-0.5,1.7-1.9c0-3.8,0-7.5,0-11.3c0.1-4.8,3.9-8.7,8.7-8.8c6.8-0.1,13.6-0.1,20.4,0c4.7,0.1,8.4,3.6,8.7,8.4
			c0.1,1.9,0,3.7,0,5.6c-18,5.5-30,17.1-33.8,35.6C13.2-72.4,19.6-57.1,34.1-44.9z"/>
		<path d="M89.9-44.8c11.9-9.7,18.3-21.8,18.3-36.9c0-15.1-6.4-27.2-18.3-36.9c0.7,0,1,0,1.4,0c6.8,0,13.7,0,20.5,0
			c5.7,0,9.4,3.7,9.4,9.4c0,18.4,0,36.7,0,55.1c0,5.7-3.6,9.4-9.4,9.4C104.6-44.8,97.4-44.8,89.9-44.8z"/>
		<path fill="#000" d="M92.3-81.8c0,16.7-13.4,30.2-30.1,30.3c-16.8,0.1-30.3-13.4-30.3-30.2c0-16.7,13.5-30.3,30.2-30.3
			C78.7-112,92.3-98.5,92.3-81.8z M62-55.1C76.7-55,88.7-67,88.8-81.6c0-14.7-11.9-26.8-26.6-26.8c-14.8,0-26.7,11.9-26.8,26.6
			C35.3-67.1,47.3-55.1,62-55.1z"/>
		<path d="M62-55.1c-14.7,0-26.7-12.1-26.7-26.8c0.1-14.8,12-26.7,26.8-26.6c14.7,0,26.7,12.1,26.6,26.8C88.7-67,76.7-55,62-55.1z"
			/>
	</g>
</g>
</svg>
