<?xml version="1.0" encoding="utf-8"?>
<!-- Generator: Adobe Illustrator 18.0.0, SVG Export Plug-In . SVG Version: 6.00 Build 0)  -->
<!DOCTYPE svg PUBLIC "-//W3C//DTD SVG 1.1//EN" "http://www.w3.org/Graphics/SVG/1.1/DTD/svg11.dtd">
<svg version="1.1" id="Layer_0_xA0_Image_1_" xmlns="http://www.w3.org/2000/svg" xmlns:xlink="http://www.w3.org/1999/xlink"
	 x="0px" y="0px" viewBox="0 0 1740 1740" enable-background="new 0 0 1740 1740" xml:space="preserve">
<g>
	<g id="XMLID_1_">
		<g>
			<path fill="#FFFFFF" d="M3794.9,854.4c1,1.8,0.8,3.7,0.8,5.6c0,1.3-0.3,2.7,0.2,3.8c1,2.7,0.7,5.3,0.8,8c0,1.1-0.1,2.3,0.2,3.3
				c0.9,2.2,0.7,4.4,0.7,6.6c0,1.9-0.3,3.9,0.1,5.7c0.8,3.2,0.6,6.4,0.6,9.5c0,2.6-0.1,5.1,0.1,7.7c0,0.9,0.5,1.8,0.8,2.7
				c0,23.4,0,46.7,0,70.1c-0.3,2.2-0.7,4.4-0.7,6.6c-0.4,11.5-0.6,23-1,34.5c-0.1,2.5-0.6,5.1-0.8,7.6c-0.4,5.1-0.3,10.2-1.2,15.2
				c-0.6,3-0.5,6-1,8.9c-0.5,2.7-0.5,5.4-1,8c-0.5,2.7-0.4,5.4-1.1,8c-1,3.5-0.9,7.2-1.7,10.8c-0.7,3.2-0.4,6.7-1.2,9.9
				c-0.9,3.6-1.3,7.1-1.9,10.7c-0.6,3.7-1.3,7.4-2,11.2c-0.2,1.2-0.6,2.4-0.9,3.7c-0.4,2.7-0.7,5.3-1.2,8
				c-1.2,5.4-2.8,10.7-3.7,16.1c-1.2,7-3.2,13.8-4.8,20.8c-2.1,8.9-4.4,17.8-7.2,26.5c-1.8,5.7-3,11.6-4.7,17.4
				c-2.9,9.4-5.8,18.8-9,28c-3.5,10-7.1,20-10.9,29.9c-3.5,9-6.9,18-10.6,27c-1.3,3.1-2.6,6.2-3.9,9.2c-1.8,3.9-3.6,7.8-5.4,11.7
				c-3.4,7.4-6.5,14.8-10.1,22.1c-5.8,11.7-11.9,23.3-17.9,34.9c-2.1,4.1-4.3,8.1-6.6,12.1c-1.5,2.8-3.1,5.6-4.8,8.3
				c-3.4,5.7-6.9,11.4-10.4,17c-3.4,5.6-6.7,11.2-10.2,16.6c-7,10.6-14.1,21.1-21.2,31.6c-5.2,7.6-10.8,14.8-16.1,22.4
				c-4.9,7.1-10.8,13.7-16.2,20.5c-1.6,2-3.3,3.9-4.8,5.9c-3.5,4.5-6.9,9.1-10.6,13.4c-3.2,3.8-6.6,7.3-9.9,11c-0.3,0.4-0.8,0.6-1,1
				c-1.6,3.3-4.6,5.3-6.9,7.9c-2.4,2.7-4.8,5.5-7.3,8.2c-2.4,2.6-5.3,4.8-7.3,7.6c-2.7,3.7-5.9,6.7-9.1,9.8
				c-9.5,9.5-18.8,19.2-28.9,28c-2.5,2.2-4.5,5.1-7.2,7c-2.4,1.7-4.3,3.7-6.4,5.7c-3.7,3.4-7.5,6.8-11.3,10.3
				c-0.1,0.1-0.2,0.2-0.4,0.3c-4,2.4-6.9,6.1-10.6,8.8c-2.7,1.9-5.1,4.3-7.7,6.4c-4.2,3.4-8.5,6.6-12.7,10c-4,3.1-7.9,6.3-12,9.4
				c-2.8,2.1-5.8,4-8.5,6.1c-6.7,5.3-13.8,10.1-20.8,15c-5.6,3.9-11.3,7.8-17,11.5c-7.4,4.9-14.8,9.7-22.5,14.2
				c-4.1,2.4-8.1,5.1-12.1,7.5c-3.9,2.4-7.9,4.7-11.9,7c-4,2.3-8.1,4.4-12.1,6.6c-6.4,3.5-12.7,7.4-19.2,10.7
				c-13.5,6.8-27.2,13.3-40.8,19.8c-3,1.4-6,2.8-9.1,4.2c-7,3-14,6-21,8.9c-3.8,1.6-7.6,3-11.5,4.5c-5.8,2.2-11.6,4.1-17.4,6.5
				c-6.9,2.9-14,5.2-21,7.7c-10.9,3.9-21.9,7.2-33,10.3c-7.2,2-14.2,4.2-21.4,6.2c-10.2,2.8-20.5,5.5-30.8,7.7
				c-5.6,1.2-11.1,2.5-16.6,3.7c-4.8,1-9.6,2.1-14.4,3c-4.8,0.9-9.7,1.5-14.5,2.4c-4.3,0.8-8.6,1.9-13,2.5c-5.8,0.8-11.6,1.4-17.4,2
				c-0.5,0.1-1,0.1-1.4,0.3c-3.3,1.3-6.9,1.2-10.3,1.6c-4.1,0.4-8.1,1.7-12.3,1.2c-0.3,0-0.7,0-0.9,0.1c-2.2,1.3-4.6,0.9-7,1
				c-0.9,0-2-0.2-2.9,0.2c-2.5,1-5,0.7-7.6,0.8c-1.1,0-2.3-0.2-3.3,0.2c-3.1,1.2-6.3,0.7-9.5,0.8c-1.4,0.1-3-0.1-4.2,0.4
				c-1.7,0.7-3.4,0.7-5.2,0.7c-3.7,0-7.4,0-11,0c-1,0-2,0-2.4,1.2c-27.8,0-55.7,0-83.5,0c-0.7-1.1-1.8-1.2-2.9-1.2
				c-3.8,0-7.7,0-11.5,0c-1.3,0-2.5-0.3-3.8-0.4c-1.6-0.2-3.1-0.5-4.7-0.6c-5.9-0.4-11.8-0.3-17.6-1.2c-3.2-0.4-6.3-0.7-9.5-0.8
				c-0.6,0-1.4,0-1.9-0.3c-1.8-1.1-3.7-0.7-5.6-0.8c-1.4-0.1-2.8-0.4-4.2-0.5c-1.1-0.1-2.2-0.3-3.3-0.4c-1.8-0.1-3.5-0.4-5.2-0.6
				c-3.2-0.4-6.2-1.1-9.4-1.5c-3.3-0.4-6.7-0.3-9.9-1.2c-2.4-0.7-4.8-0.3-7.1-0.9c-4.4-1.3-9-1.9-13.5-2.5
				c-4.8-0.8-9.6-1.9-14.5-2.5c-6.4-0.8-12.6-2.6-19-3.8c-5.7-1.1-11.4-2.6-17-4c-5.1-1.2-10.2-2.4-15.2-3.9c-6.1-1.8-12.3-3-18.3-5
				c-5.5-1.9-11.3-3-16.9-4.7c-9.1-2.7-18.2-5.4-27.2-8.6c-10.2-3.6-20.4-7.1-30.4-11.2c-9-3.6-18-7-27-10.6
				c-3.1-1.2-6.2-2.5-9.2-3.9c-3.9-1.8-7.8-3.6-11.7-5.4c-7.5-3.5-15-6.8-22.5-10.4c-9.8-4.7-19.4-9.5-28.9-14.8
				c-5.5-3.1-11.2-6-16.8-9c-3.1-1.7-6.2-3.3-9.2-5.1c-5.8-3.5-11.6-7.1-17.4-10.7c-5.4-3.3-10.9-6.4-16.2-9.9
				c-12.3-8.2-24.5-16.5-36.8-24.7c-1.3-0.9-2.6-1.9-3.8-2.8c-3.2-2.4-6.3-4.7-9.5-7.1c-5.8-4.3-11.8-8.6-17.5-13.1
				c-4.3-3.3-8.2-7-12.5-10.3c-5.9-4.5-11.8-9.2-17.2-14.3c-0.3-0.3-0.7-0.7-1.1-1c-4.3-2.3-7-6.4-10.9-9.2
				c-3.4-2.5-6.2-5.8-9.5-8.6c-5.2-4.4-9.6-9.8-15.1-13.9c-9.8-10.5-20.9-19.7-30-30.9c-2.3-2.8-5.2-5.2-7.8-7.8
				c-2.5-2.7-4.8-5.5-7.3-8.2c-3.7-4.1-7.5-8.2-11.3-12.3c-0.1-0.1-0.2-0.2-0.3-0.4c-2.4-4-6.1-6.9-8.8-10.6c-2-2.8-4.5-5.3-6.7-8.1
				c-3.4-4.2-6.7-8.4-10-12.7c-3.1-4-6.3-7.9-9.4-12c-1.9-2.5-3.5-5.3-5.5-7.7c-5.7-7-10.7-14.6-15.8-22c-4.5-6.5-9-13.1-13.4-19.7
				c-3.7-5.5-7.3-11.1-10.8-16.7c-2.8-4.5-5.2-9.1-7.9-13.6c-3.1-5-6.2-9.9-8.9-15.1c-1.8-3.5-3.6-7.1-5.8-10.4
				c-4.3-6.7-7.7-14-11.4-21c-4.7-9-9.5-18-13.3-27.5c-2-4.8-4.8-9.3-6.8-14.2c-2.7-6.6-5.8-13.1-8.6-19.6c-1.3-3-2.5-6.2-3.8-9.3
				c-1.8-4.4-3.3-8.9-5.2-13.3c-4.4-10.4-8-21-11.8-31.6c-4.2-11.8-7.9-23.7-11.3-35.7c-2-7.2-4.2-14.3-6.2-21.4
				c-2.8-10-5.3-20.2-7.5-30.3c-1.1-4.8-2-9.6-3.1-14.3c-1-4.8-2-9.6-3.1-14.3c-0.5-2.1-0.4-4.1-0.8-6.1c-0.9-4.5-2.1-8.9-2.7-13.4
				c-0.7-5-2.3-9.9-2.3-15c-1.3-2.4-0.3-5.1-1.1-7.5c-1.2-3.2-0.6-6.6-1.6-9.8c-1.1-3.4-0.8-7.2-1.2-10.8c-0.1-0.5,0-1-0.2-1.4
				c-0.9-1.8-0.7-3.7-0.8-5.7c0-1,0.2-2.1-0.2-2.8c-1.2-2.6-0.8-5.3-0.9-8c0-0.9-0.2-1.9-0.3-2.8c-0.2-1.6-0.6-3.1-0.6-4.7
				c0-5.9-1.6-11.7-1-17.6c0.1-0.5,0-1-0.2-1.4c-1.1-1.8-0.8-3.7-0.8-5.6c0-3.7-0.1-7.4,0-11c0-1.4-0.8-2-2-2.2
				c0-14.1,0-28.2,0-42.2c1.1-1.7,1-3.7,1-5.6c0-8.5,0-17,0-25.4c0-4-0.4-8,1.4-11.8c0.3-0.6,0.2-1.3,0.3-1.9c0.4-4,0.7-8,1.1-11.9
				c1.3-13.2,2.4-26.4,3.8-39.6c2-18.8,4.5-37.5,7.9-56c2.7-14.9,5.4-29.9,9.1-44.6c6.2-25,13.6-49.6,21.3-74.2
				c6.7-21.5,14.2-42.8,23-63.6c21.7-51.1,48.1-99.6,78.4-146c14-21.4,28.9-42.3,45.5-61.8c6.7-7.9,13.4-15.9,20.2-23.8
				c14.1-16.6,28.3-33.1,44-48.1c11.6-11.2,23.6-22,35.4-33.1c16.6-15.6,34.1-29.9,52.5-43.4c20.3-15,40.7-30,62-43.5
				c28.7-18.1,58.5-34.3,89.1-48.9c14.4-6.9,28.7-14.2,43.6-19.8c11.4-4.3,22.8-8.3,34.3-12.4c37.2-13.3,74.8-25.4,113.5-33.5
				c14.9-3.1,29.7-6.2,44.8-8.3c10.8-1.5,21.5-3,32.3-4.4c9-1.1,18.1-2.2,27.2-3c10.4-0.9,20.7-1.5,31.1-2.3
				c2.1-0.2,4.3-0.3,6.1-1.1c1.8-0.9,3.6-1.1,5.5-1.1c10.4,0,20.8,0,31.2,0c1.7,0,3.5-0.3,5.2-0.5c14.1,0,28.2,0,42.2,0
				c0.5,1.1,1.5,1.1,2.4,1.1c3.8,0,7.7,0,11.5,0c1.1,0,2.4-0.2,3.3,0.2c2.3,1.2,4.7,0.8,7.1,0.9c1.9,0.1,3.9-0.3,5.7,0.3
				c2.4,0.7,4.7,0.7,7.1,0.7c4.5,0,8.8,1.5,13.3,1c0.3,0,0.7,0,0.9,0.2c1.9,1.3,4,0.8,6.1,0.9c1,0,1.9,0.1,2.9,0.2
				c3.8,0.5,7.5,1.4,11.3,1.6c2.4,0.1,4.6,1,7,1.2c3.5,0.3,7,0.6,10.4,1.1c5.3,0.8,10.5,2.1,15.8,2.8c6.4,0.8,12.7,2.3,19.1,3.3
				c6.5,0.9,13,2.7,19.5,4c5.3,1,10.4,2.5,15.6,3.8c3.4,0.8,6.9,1.1,10.2,2.2c8,2.6,16.2,4.2,24.2,6.8c5.5,1.8,11.3,3,16.9,4.7
				c9.2,2.8,18.4,5.7,27.6,8.8c9.2,3.1,18.3,6.3,27.3,9.8c4.7,1.8,9.4,3.7,14.2,5.5c4.7,1.8,9.3,4,14,5.9c5.6,2.3,11.2,4.5,16.7,6.9
				c8.5,3.6,16.6,8,25.1,11.6c4.6,1.9,8.8,4.4,13.3,6.6c6.3,3.1,12.5,6.3,18.6,9.8c5.9,3.4,12.1,6.4,18.1,9.6
				c2.9,1.6,5.7,3.4,8.6,5.1c5.7,3.4,11.5,6.8,17.2,10.2c5.3,3.2,10.7,6.3,15.8,9.8c12.5,8.4,25,16.9,37.4,25.3
				c0.8,0.5,1.7,1,2.4,1.5c5.7,4.3,11.4,8.5,17.2,12.8c1.9,1.4,3.8,2.9,5.6,4.4c3.5,2.7,7.1,5.4,10.5,8.1c2.5,2,4.8,4.2,7.3,6.2
				c5.8,4.4,11.6,8.9,16.8,14c0.3,0.3,0.6,0.8,1,1c4.2,2.1,6.8,6.2,10.6,8.9c3.7,2.6,6.7,6.3,10.3,9.2c5,4.2,9.4,9.1,14.3,13.3
				c5.4,4.7,10.3,10,15.3,15.2c5.1,5.3,10.5,10.2,15.2,15.9c4.3,5.3,9.6,9.8,14,15.1c3.9,4.6,8.1,8.9,12.2,13.4
				c0.1,0.1,0.2,0.2,0.3,0.4c2.7,3.3,5.4,6.7,8.1,9.9c3.8,4.5,7.6,8.9,11.3,13.5c4.1,5.2,7.9,10.7,12.1,15.8
				c6.1,7.2,11.2,15,16.9,22.4c5.3,6.9,9.9,14.3,14.8,21.6c4.8,7.3,9.4,14.7,14.3,22c2.8,4.2,5.3,8.6,7.9,13c4,6.7,8,13.3,12,20
				c1.9,3.3,3.4,6.8,5.5,10c4.3,6.7,7.5,14,11.3,21c5.5,9.9,10.4,20.1,14.9,30.4c2.6,6,5.7,11.8,8.3,17.7c3,6.7,5.7,13.4,8.6,20.2
				c1.6,3.9,3.3,7.9,4.8,11.9c2.2,5.8,4.1,11.7,6.4,17.4c2.8,6.9,5.2,14,7.7,21c3.9,10.9,7.3,21.9,10.3,33.1c1.9,7,4,14,5.9,21
				c2.9,10.3,5.5,20.8,7.9,31.2c1.2,4.9,2.1,9.9,3.3,14.8c1.9,7.5,3.1,15.1,4.5,22.7c0.3,1.5,0.7,3.1,1,4.6c0.5,3,1,5.9,1.5,8.9
				c0.5,3,1.1,5.9,1.5,8.9c0.4,3.3,0.3,6.7,1.2,9.9c0.8,2.5,0.1,5.2,1.1,7.5c1.2,3.2,0.8,6.6,1.6,9.8c0.9,4.1,0.8,8.5,1.1,12.8
				C3794.7,853.5,3794.7,854,3794.9,854.4z M3421.7,1461.7c0-1.3-0.8-2-1.9-2.4c-0.6-0.2-1.2-0.4-1.8-0.6
				c-9.6-3.2-19.3-6.4-28.9-9.7c-1.2-0.4-2.2-1.1-3.4-1.6c0-3.3,0-6.3,0-9.5c-3.9-2.8-7.4-5.2-10.9-7.7c-4.5-3.3-9-6.6-13.4-9.9
				c-3.8-2.8-7.7-5.6-11.4-8.6c-5.1-4.1-10.3-8-14.9-12.7c-1.5-1.5-2.9-3-4.5-4.4c-2.9-2.4-6-4.6-9-7.1c-4.6-3.9-9.1-7.9-13.8-11.8
				c-5.1-4.2-10.3-8.4-15.5-12.5c-0.9-0.7-1.8-1.3-2.8-1.8c-2.4-1.3-4.8-2.6-7.3-3.6c-2.3-0.9-3.6-2.5-4-4.9
				c-0.1-0.8-0.3-1.5-0.5-2.3c-0.5-2.5-0.9-5-1.5-7.4c-1.1-5.1-2.5-10.1-3.5-15.2c-0.8-3.7-2.5-6.8-5.1-9.5
				c-2.2-2.3-4.5-4.4-7.1-6.3c-2.8-2.1-5.2-4.7-6.9-7.8c-5.1-4.8-9.8-10-14.4-15.3c-3.8-4.3-8.1-8.2-11.5-12.8
				c-2.9-4-6.8-7-9.6-11.2c-2.1-3.1-5.1-5.6-7.5-8.6c-3-3.7-6-7.4-9-11.1c-4.4-5.4-8.1-11.3-12.2-17c-2.9-4-5.5-8.2-8.2-12.3
				c-0.8-1.2-1.6-2.4-2.5-3.5c-0.7-0.8-1.6-1-2.6-0.5c-5.1,2.9-10.2,5.8-15.4,8.7c-1.8,1-3.7,1.9-5.6,2.7c-0.6,0.3-1.4,0-2.5,0
				c0.5-1.3,0.6-2.3,1.1-3c1.1-1.6,1.4-3.5,0.8-5c-1.1-2.8-0.7-5.7-1-8.5c-0.3-2.5-0.9-5-1.6-7.4c-1.7-6.2-5.8-10.9-9.8-15.6
				c-3.4-4-7-7.8-10.6-11.7c-0.5-0.6-0.8-1.4-1.2-2c-4.5-6.6-9-13.1-13.4-19.7c-1.1-1.6-2.3-3.1-2.9-4.9c-1.8-5.2-3.8-10.4-6.2-15.4
				c-2.7-5.7-5-11.7-7.8-17.4c-3.4-7-7-14-10.5-20.9c-0.6-1.1-1-2.4-1.8-3.4c-2.8-3.6-5.7-7.2-8.7-10.7c-4.2-5-8.1-10.2-11.7-15.5
				c-3.5-5.1-7.3-10-9.9-15.7c-0.5-1.1-1.7-2.1-2.8-2.5c-2.4-0.7-4.9-1.2-7.4-1.4c-2.4-0.2-4.3-1-5.9-2.7c-2.4-2.4-4.9-4.6-7.1-7.2
				c-2.2-2.5-4.4-5.1-6-7.9c-4.1-7-7.4-14.4-11.3-21.6c-4.8-8.8-9.9-17.4-15.3-25.8c-3.3-5.1-6.8-10-10.2-15
				c-1.3-1.9-2.7-2.9-5.1-2.8c-2.5,0.1-5.1,0-7.8,0c-1.6-2-3.1-3.8-4.5-5.7c-1.4-1.9-3.7-3.1-4.5-5.5c0.5-1,1-2,1.6-3
				c3.1-5.6,6.4-11,9.1-16.7c3.6-7.4,6.3-15.2,9-23c0.6-1.8,1.5-3.2,2.8-4.3c2.2-1.8,4.7-3.3,6.8-5.2c3.4-3.1,6.9-6.1,9.7-9.9
				c2.4-3.2,4.5-6.5,6.6-9.9c4.8-7.9,8.2-16.4,10.8-25.7c2.2-1.3,4.6-2.8,7.2-4.1c1.9-1,3.5-2.2,4.3-4.3c0.8-2.1,1.6-4.2,2-6.3
				c0.9-4.9,3.1-9.3,4.8-13.9c0.5-1.3,1.2-2.7,2-3.8c2.3-2.8,4.8-5.5,7.2-8.3c0.5-0.6,1.2-1.1,1.7-1.7c2.4-3,4.5-6.1,7.1-8.9
				c4.8-5.4,9.2-11,11.3-18c1.4-4.5,3.3-9,3-13.8c-0.1-1.8,0.3-3.5,1.9-4.9c4.4-0.5,9.1,0.2,13.6-0.4c3.1-5.4,6.1-10.7,9.1-15.9
				c2.3-4.2,4.5-8.4,6.8-12.6c2.5-4.6,5.2-9.1,7.7-13.7c2.2-4.1,4-8.3,6.3-12.4c1.7-3,3.3-6.1,5.6-8.8c3.8-4.5,7.3-9.2,10.8-13.8
				c3-3.9,5.5-8,7.3-12.7c2.9-7.7,5-15.7,7.4-23.5c2-1,4-2,5.9-3.1c1.9-1.1,4-2.1,5.4-3.8c2.5-3,4.5-6.6,5.9-10.3
				c2-5.3,3.5-10.8,4.1-16.5c0.2-1.5,0.7-2.7,1.8-3.8c3.1-3,6.1-6.2,9.2-9.1c2.8-2.6,4.9-5.8,7.2-8.9c6.1-8.2,10.6-17.4,15.6-26.2
				c4.4-7.7,8.2-15.8,13.1-23.2c5.1-7.7,9.8-15.6,14.7-23.3c3.3-5.2,6.6-10.4,9.2-16.1c4-8.7,8.3-17.2,12.3-25.9
				c1.5-3.1,2.5-6.5,4-9.6c1.6-3.4,2.2-7.3,4.8-10.2c2.3-0.1,4.5-0.2,6.8-0.4c2.6-4.9,4.9-9.8,7.7-14.4c6-9.7,11.8-19.6,18.4-28.9
				c1.1-1.5,2.1-3.2,2.9-4.9c1.2-2.6,2.2-5.3,3.4-7.8c3.5-7.2,7-14.3,11.6-20.8c2-2.9,4.2-5.6,6.1-8.5c4.5-6.7,9-13.4,13.5-20.1
				c2.1-3.2,4.1-6.4,6.4-9.4c5.9-7.7,11.1-15.9,15.6-24.5c2.6-4.9,4.1-9.9,3.7-15.5c-0.6-7.6-4.1-13.1-10.7-16.9
				c-5.1-3-10.7-3.3-16.1-3.3c-5.8,0-11.6,0.7-17.3,2.3c-7.2,2-14.4,3.6-21.5,5.9c-5.5,1.9-10.9,4.5-17,4c-2.3,1.1-4.7,0.7-7,0.9
				c-2.4,0.2-4.7,0.7-7,1.1c-4.8,0.9-9.2,2.7-12.7,6.1c-5,4.6-8.2,10.6-11.2,16.5c-4.7,8.9-9.2,17.8-13.2,27
				c-2.8,6.6-6.1,13-9.2,19.4c-0.3,0.6-0.6,1.1-0.8,1.7c-1.8,4.1-3.5,8.2-5.3,12.3c-0.2,0.4-0.6,0.7-1.1,1.3
				c-4.3-1.3-8.8-1.5-13.4-2.1c-3.9,7.8-7.7,15.4-11.5,23c-2.7,5.4-5.9,10.5-9.7,15.2c-1.5,1.8-3,3.7-4.2,5.7
				c-1.8,3-3.3,6.2-4.8,9.4c-3,6.8-5.8,13.7-8.7,20.6c-1.1,2.6-2.3,5.2-3.4,7.8c-2.5,6-5,12-7.6,18c-2.2,5.1-4.4,10.2-6.6,15.3
				c-0.6,1.5-1.1,3-1.9,4.4c-8.4,16.8-16.7,33.7-25.3,50.5c-3.6,6.9-3.4,14-2.3,21.3c0.6,3.9,0.6,7.4-2.1,10.8
				c-2.6,3.2-4.4,7-7.1,10.1c-1.1,1.3-1.9,2.9-2.8,4.4c-2.1,3.7-4.2,7.4-6.3,11c-3.8,0.9-7.3,1.7-11.1,2.6c-1.2,2.2-2.6,4.6-3.9,6.9
				c-1.6,2.9-3.2,5.8-4.9,8.7c-3.1,5.2-6.2,10.3-9.3,15.6c-2.9,4.9-5.5,10-8.4,14.9c-3.6,6.1-7.4,12.2-10.9,18.5c-1.7,3-3.6,6-5.3,9
				c-3.1,5.4-6.3,10.7-9.2,16.2c-3.1,5.8-5.9,11.7-8.8,17.5c-1.9,3.7-3.9,7.3-5.5,11.1c-1.9,4.7-4.1,9.3-6.7,13.6
				c-1.8,3-3.7,5.9-5.6,8.8c-3.6,5.8-7.2,11.6-10.8,17.4c-3.3,5.3-6.8,10.4-9.7,15.8c-1.6,3-2.5,6.5-3.4,9.8c-0.6,2.4-0.9,5-1,7.5
				c-0.1,3-3,4-4.1,6.3c-0.5,1.1-1.5,2.1-2.1,3.2c-1.6,3.1-3.9,5.1-7.4,5.9c-4.1,1-7.7,3.4-10.2,6.6c-4.5,5.7-8.4,12-12.5,17.9
				c-4.3,6.1-8.6,12.1-12.9,18.2c-0.5,0.7-0.7,1.7-0.9,2.6c-1,4-3.2,6.8-7,8.2c-0.6-0.3-1.1-0.5-1.4-0.8
				c-9.2-7.1-17.3-15.2-23.4-25.2c-1.1-1.8-2.3-3.5-3.4-5.2c-3.8-5.7-7.6-11.4-11.4-17.2c-5.9-9-14.3-13.5-24.9-13.9
				c-5-0.2-9.9-0.2-14.9-0.3c-0.7,0-1.6,0.1-1.9-1.2c0.4-0.5,0.8-1.1,1.4-1.7c2.4-2.5,3.9-5.4,4.8-8.7c1.1-4.3,2.1-8.7,3.4-13
				c0.8-2.7,0.5-5-1-7.3c-2.7-4.2-5.1-8.5-8-12.5c-10.8-15.1-21.8-30-32.8-45c-0.9-1.3-1.9-2.5-3.1-3.7c-2.3-2.3-5.1-3.3-8.3-2.6
				c-1.1,0.2-2.2,0.6-3.3,0.7c-0.6,0.1-1.2-0.2-1.9-0.4c0-2.5,0.8-4.6,1.5-6.6c1.5-4.1,0.7-7.9-1.5-11.5c-0.8-1.2-1.6-2.4-2.5-3.5
				c-4.8-6.6-9.6-13.2-14.5-19.7c-7.7-10.4-15.4-20.9-23.7-30.8c-3.1-3.6-5.7-7.7-8.2-11.8c-3.8-6.3-7.4-12.7-11-19.1
				c-7.4-13.1-14.7-26.3-22.1-39.3c-2.3-4-4.8-7.9-7.5-11.7c-3-4.2-6.9-7.7-11.8-9.6c-3.5-1.3-5.4-3.7-6.7-7
				c-1.5-3.9-3.1-7.7-4.4-11.7c-3.6-10.7-9.6-19.8-17.5-27.8c-4.3-4.3-8.4-8.8-12.7-13.1c-1.6-1.6-3.3-3.1-5-4.4
				c-3.3-2.5-7.1-3.7-11.2-3.3c-1,0.1-1.9,0.3-2.9,0.2c-3-0.1-4.2-1.7-3.6-4.8c0.1-0.6,0.4-1.2,0.5-1.8c2-10.4,1.6-20.7-2.3-30.7
				c-1.2-3.1-2.5-6.2-3.9-9.3c-3.2-6.6-6.5-13.2-9.8-19.8c-1.9-4-3.9-8-5.6-12.2c-1.1-2.8-2.6-5-4.9-6.9c-4.4-3.6-8-7.8-10.9-12.7
				c-7.4-12.1-12.8-25.1-15.2-39.1c-0.8-4.4-1-8.9-1.6-13.3c-1.5-11.3-6.9-20.1-16.4-26.5c-5.5-3.7-11.6-6-18.1-7.5
				c-12-2.7-22.5-0.2-31.3,8.7c-1.1,1.1-2.3,2.2-3.4,3.4c-4.4,4.9-8.9,9.7-13.1,14.7c-3.1,3.7-6.6,6.9-10.7,9.5c-4.8,3-9.5,6-14.2,9
				c-6.5,4.1-12.7,8.6-18.4,13.9c-4.4,4.1-8.2,8.6-11,13.9c-1.6,3.1-3.9,5-7.1,6c-3.8,1.2-7.6,2.5-11.4,3.8
				c-0.9,0.3-1.6,0.8-2.5,1.3c1.9,13.2,3.8,26.2,5.6,39.1c0.3,1.8,0.9,3.4,2.1,4.7c1.1,1.2,2.1,2.4,3.3,3.5c6.5,6,12,12.8,16.7,20.4
				c1.9,3.1,4.2,6.1,6.8,8.7c6.8,7,13.1,14.5,18.9,22.4c7.5,10.2,14.9,20.4,22.3,30.6c19.8,27.2,40.4,53.7,61.5,79.8
				c0.7,0.9,1.4,1.7,2.3,2.6c2.2-1.5,3.9-0.9,5.6,0.7c2.4,2.3,5,4.5,7.6,6.6c3.3,2.7,6.9,3.8,11.2,2.4c1.8-0.6,3.7-1,5.6-1
				c4.6-0.2,7.6,1.8,8.9,6.3c1.3,4,3.7,6.7,7.7,7.8c1.7,0.5,3.3,1.1,4.6,2.9c-0.4,1.5-0.9,3.2-1.4,4.9c-1.5,5.4-3,10.8-4.6,16.1
				c-1.1,3.5-0.2,6.3,2.3,8.8c0.9,0.9,1.8,1.8,2.6,2.8c3.2,3.8,6.6,7.4,9.6,11.3c3.9,5.1,6.8,10.9,8.1,17.2c0.5,2.5,1.7,4.4,3.6,6
				c3.4,2.9,6.8,5.9,10.1,8.9c3.4,3,6.2,6.5,7.9,10.7c3.6,9.1,7.3,18.1,10.6,27.3c3.1,8.5,8.2,15.5,15.6,20.7
				c2.9,2.1,5.7,4.1,8.6,6.2c6.6,4.9,12.3,10.8,16.7,17.7c3.2,5,6.2,10.1,9,15.3c7.2,13.9,14.2,28,22.1,41.5
				c6.5,11.1,13.5,21.7,21.5,31.7c7.7,9.7,16.4,18.3,27.3,24.6c3.7,2.1,6.4,5.2,8.3,9.1c0.9,1.9,1.6,3.8,2.6,5.7
				c1.6,3.1,3.2,6.3,5.2,9.2c3.9,5.6,9.3,9.2,16.2,10.1c5.1,0.7,10.2,1.1,15.2,1.7c0.9,0.1,2-0.2,2.5,1.2c-0.2,0.4-0.4,1.1-0.8,1.5
				c-4.4,4.4-5.7,9.8-5,15.9c0.2,1.7,0.3,3.5-0.5,5.2c-0.9,1.9-0.4,3.6,1.3,5.1c2.5,2.3,4.8,4.7,7.2,7.2c-0.1,1.1-0.4,2.2-0.3,3.3
				c0.1,1.7,1.4,2.8,2.6,3.9c5.5,5.8,10.9,11.6,16.4,17.4c0.2,0.2,0.5,0.4,0.6,0.7c0.3,0.9,0.9,1.8,0.7,2.6
				c-0.7,2.9-1.5,5.8-2.4,8.7c-0.8,2.6-1.8,5.1-2.8,7.6c-2.9,7.4-5.9,14.7-8.6,22.2c-1.1,3.1-2.8,5.6-5.2,7.8
				c-3.5,3.3-7,6.6-9.6,10.6c-2.3,3.6-5.2,6.8-7.3,10.5c-2.9,5.1-6.1,10-9.8,14.6c-2.9,3.6-5.7,7.2-8.6,10.7
				c-3.4,4-6.2,8.5-9.7,12.3c-3.1,3.4-5.7,7.2-8.1,11.1c-0.8,1.4-1.8,2.6-2.5,4c-1.3,2.7-2.4,5.5-3.7,8.3c-1.1,2.5-2.4,4.9-3.6,7.3
				c-1.3,2.7-2.5,5.5-3.8,8.2c-1.2,2.6-2.3,5.2-4.4,7.4c-2.1,2.2-3.9,4.6-5.9,6.8c-4.4,4.8-9.4,9-13.4,14.3c-2.7,3.5-6.3,6.3-8.9,10
				c-2.1,3-4.6,5.7-6.6,8.7c-3.9,5.8-8.1,11.4-11.2,17.7c-2.2,4.4-4.8,8.6-7.4,12.8c-5.3,8.5-11.5,16.4-17.3,24.5
				c-2.8,4-6,7.8-8.1,12.3c-1.9,4.2-4,8.3-6,12.4c-2.5,5.1-5.7,9.6-9,14.1c-4.1,5.6-8.7,10.9-13.1,16.3c-2.9,3.6-5.9,7-8.6,10.7
				c-5.7,7.8-11.2,15.7-16.3,23.9c-3,4.7-6.4,9.1-10.5,12.9c-2.8,2.6-5.2,5.6-7.7,8.4c-4.7,5.4-10,10.3-14.6,15.8
				c-3.9,4.6-8.7,8.3-12.3,13.3c-3.2,4.3-7,8.3-10.3,12.5c-3.5,4.5-6.7,9.2-10,13.8c-1.4,1.9-2.8,3.9-4.5,5.6
				c-4,3.9-7.9,7.9-12.2,11.4c-5.9,4.8-11,10.7-15.6,16.7c-2.4,3.2-5,6.2-7.6,9.2c-1.4,1.6-2.8,3-4,4.7c-1.3,1.9-3.2,3.6-5.1,5
				c-3.4,2.7-6.4,5.6-9,9.1c-3.1,4.1-5.3,8.7-7.9,13.1c-3.5,5.8-7.5,11.4-11.8,16.7c-0.7,0.9-1.6,1.5-2.5,2.2
				c-3.1,2.5-6.2,5-9.2,7.5c-1.5,1.2-2.9,2.5-4.2,3.9c-1.3,1.3-2.5,2.8-3.8,4.2c-5.6,6.2-10,13-11.4,21.6c-0.7,4.3-0.7,8.4,0.2,12.7
				c0.8,3.8,2.4,7.3,4.3,10.5c1.6,2.6,3.3,5.4,6.4,6.9c3.8,4,8.7,6,13.7,7.4c5.4,1.5,11,3.1,16.8,2.6c1.4-0.1,2.8,0.5,4.2,0.5
				c1.7,0.1,3.5,0.1,5.2,0c1.7-0.1,3.4-0.4,5.2-0.6c1.1-0.1,2.3,0.1,3.3-0.2c3.2-0.9,6.5-1.7,9.5-3c3.9-1.7,7.7-3.7,10.8-6.8
				c2.8-2.7,5.3-5.5,6.9-9c0.7-1.4,1.8-2.3,3.1-2.8c2.2-0.9,4.6-2.1,6.8-2c3.6,0,6.9-1.2,10.3-1.4c5.5-0.4,10.6-2.4,15.1-5.4
				c5.8-3.8,10.4-8.8,14.3-14.5c3.7-5.4,7-11,9-17.3c1-3.2,3.1-5.1,5.7-6.5c1.4-0.8,2.8-1.4,4.3-2.2c1.6-0.8,3.1-1.7,4.8-2.6
				c1.1-4.6,2.2-9.2,3.1-13.8c0.9-4.6,2.6-8.9,5.6-12.4c2.2-2.6,3.7-5.5,5.9-8.1c0.9-1.1,1.7-2.3,2.5-3.4c2.9-4.2,5.8-8.3,8.5-12.7
				c2.2-3.5,4.1-7.2,6-10.8c4.2-7.9,8.3-15.8,12.4-23.7c1-1.8,1.6-3.8,2.9-5.5c0.9-1.3,1.3-2.5,1.3-4c0-2.9,0-5.7,0-8.1
				c1.7-2.2,2.8-4.3,4.4-5.7c3.6-3.3,6.1-7.3,8.7-11.3c1.6-2.4,3.2-4.5,5.6-6.2c5.7-3.9,11.2-8.3,16.9-12.3c2.8-1.9,5.3-4.1,7.3-6.7
				c2.3-3,4.8-5.9,6.9-9.1c5.1-7.9,11.2-15,16.8-22.5c3.2-4.3,6.9-8.3,9.5-13.1c0.2-0.4,0.5-0.8,0.8-1.2c4.6-6.3,9.1-12.6,13.7-18.8
				c2.7-3.7,5.4-7.4,8.1-11.1c2.6-3.6,5.3-7.1,8.2-10.5c3.1-3.4,5.6-7.3,8.9-10.5c5.2-5,10.7-9.6,15.7-14.7c0.6-0.7,1.5-1.1,2.4-1.8
				c-0.3-0.7-0.6-1.4-0.7-2.1c-0.4-3-0.7-6-1.2-9c-0.4-2.7-0.6-5.4-1.5-7.9c-0.7-2.1-0.6-4.1-0.5-6.1c0-0.9,0.4-1.9,1-2.6
				c3.9-5,8-9.8,11.7-15c1.7-2.3,3.8-4.3,5.5-6.5c4.2-5.6,8.7-10.9,13.3-16.1c0.5-0.6,1-1.3,1.4-1.9c4.1-6.9,8.3-13.9,12.4-20.9
				c3.1-5.2,6.3-10.3,9.4-15.5c2.1-3.5,4.5-7,6.2-10.7c2.9-6.1,7.3-11.2,11.2-16.5c4.7-6.4,9.8-12.5,14.7-18.7
				c1.2-1.5,2.3-3.1,3.5-4.6c3.9-4.8,8.1-9.4,11.1-14.8c0.6-1.1,1.7-1.4,3-1c2.5,3.5,5.1,7.1,7.5,10.8c3.8,5.7,7.3,11.5,11.2,17.1
				c3.9,5.6,7.6,11.3,12.6,16.1c2.2,2,4.6,3.5,7.2,4.5c2.4,0.9,4.8,1.7,7.3,2.1c1.8,0.3,3.8,0,5.7-0.3c1.7-0.3,3.3-1,5-1.4
				c1.6-0.4,2.7,0.5,3.1,2.2c1,4.6,2.1,9.3,3.2,13.9c1.4,5.8,2.6,11.8,4.4,17.5c2,6.7,4.1,13.4,7.6,19.5c2,3.4,3.7,7.1,5.8,10.4
				c3.4,5.2,6.8,10.3,10.6,15.2c3.6,4.6,7.2,9.2,10.5,14.1c2.3,3.4,4.7,6.8,6.7,10.4c2.6,4.7,4.9,9.7,7.3,14.6
				c1.3,2.6,2.7,5,5.5,6.4c1.4,0.7,2.3,2,2.6,3.8c0.8,3.7,2,7.3,1.9,11.2c-0.1,2,0.7,3.4,2.3,4.5c2.7,1.9,5.4,3.9,8.3,5.6
				c3.6,2.3,7.4,4.3,11,6.6c1.1,0.7,2.3,1.3,2.9,2.3c2.1,3.2,4,6.5,6,9.8c3.5,5.8,6.8,11.8,10.6,17.5c2.4,3.7,5.3,7.1,8,10.6
				c3.9,5,7.8,10,11.6,15c2,2.7,4.1,5.2,5.6,8.3c4,8,8.2,15.8,12.3,23.8c0.8,1.6,1.6,3.1,2.4,4.7c0.7,1.5,1.8,2.6,3.4,3.2
				c4.5,1.6,8.9,3.2,13.3,5c6.5,2.5,12.3,6,16.4,12.2c-1.3,5.5-3.7,10.9-4.4,16.9c1.8,1.8,3.6,3.6,5.3,5.4
				c5.5,5.6,11.1,11,17.1,16.1c2.3,2,4.4,4.2,6.4,6.4c3.6,4.1,8.2,7.1,12,11c5.6,5.7,11.3,11.3,17,17c0.8,0.8,1.6,1.6,2.3,2.5
				c1.9,2.5,3.7,5.1,5.8,7.5c2.3,2.6,4.4,5.4,6.3,8.3c1.4,2.2,2.9,4.1,4.8,5.9c4.7,4.6,9.3,9.2,13.9,13.9c1,1,1.9,2.1,2.7,3.3
				c5,7.7,9.8,15.6,15.1,23.1c4.4,6.3,8,13,11.4,19.8c1.7,3.4,3.5,6.8,5.1,10.3c2.2,5,6.1,8.4,10.3,11.5c4.3,3.1,9.1,5.2,14.3,6.2
				c11.9,2.5,10.8,3.1,21.1,2.8c0.3,0,0.6,0,1,0c4.5,0.5,8.8-0.7,13.1-2.2c9.2-3.2,15.7-9.4,19.3-18.4c0.5-1.3,1.2-2.2,2.5-2.6
				c4.2-1.5,8-3.7,11.9-5.9c4.5-2.5,8.3-5.9,12.2-9c2.6-2.1,5.1-4.4,7.7-6.5c4.1-3.3,8.3-6.4,12.4-9.6c4-3.2,7.9-6.4,11.8-9.6
				c3-2.4,6.1-4.5,8.9-7.1c4.2-3.9,8.3-8,12.2-12.3c3.6-3.9,6-8.6,5.6-14.2c-0.1-1.7-0.2-3.6,0.3-5.2
				C3422.4,1470.3,3421.6,1466,3421.7,1461.7z"/>
		</g>
		<g>
		</g>
	</g>
</g>
</svg>
