<svg xmlns="http://www.w3.org/2000/svg" xmlns:xlink="http://www.w3.org/1999/xlink" version="1.1" id="junnior" x="0px" y="0px" viewBox="0 0 3201.8 645.8" enable-background="new 0 0 3201.8 645.8" xml:space="preserve"><style>.style0{fill:	#000;}</style><g><path d="M236.5-424.5c-18.8-16.1-30.2-32-34.2-47.8c-4-15.8-3-30.7 3-44.8c6-14.1 15.9-27.5 29.7-40.2 c13.8-12.7 28.8-24.5 45.3-35.2s33.4-20.3 50.8-28.7s32.5-15.3 45.3-20.6c27.5-10.7 55.5-21.6 84-32.7s56.5-23.3 84-36.7l10.1-13.1 c6.7-10.1 14.6-21.3 23.6-33.7c9-12.4 19.1-23.3 30.2-32.7s23.1-16.6 36.2-21.6s26.7-5.2 40.8-0.5c13.4 4 19.5 11.6 18.1 22.6 s-6 20.3-14.1 27.7c-11.4 10.7-23.7 19.6-36.7 26.7c-13.1 7-26.3 13.9-39.7 20.6c-7.4 3.4-14.9 7-22.6 11.1 c-7.7 4-15.3 7.7-22.6 11.1c-9.4 12.8-18.3 25.3-26.7 37.7c-8.4 12.4-16.9 25-25.7 37.7c-27.5 42.3-54.7 84.2-81.5 125.8 c-26.8 41.6-53 83.8-78.5 126.8c-16.8 26.8-34.7 54.7-53.8 83.5c-19.1 28.8-42.4 53-69.9 72.4c21.5-5.4 42.6-11.6 63.4-18.6 c20.8-7 41.3-14.9 61.4-23.6c36.2-15.4 71.4-31.2 105.6-47.3s68.4-33.2 102.6-51.3c3.3-2 6.5-2.3 9.5-1s5.2 3.2 6.5 5.5s1.7 5 1 8 c-0.7 3-2.7 5.5-6 7.5l-43.3 20.1l-110.7 56.3c-34.9 15.4-69.6 30.5-104.1 45.3c-34.5 14.7-70.9 25.8-109.1 33.2 c-37.6 6-74.8 5.5-111.7-1.5c-36.9-7-71.4-21.3-103.6-42.8c-4-2.7-9.9-6.4-17.6-11.1c-7.7-4.7-15.4-9.9-23.1-15.6 c-7.7-5.7-14.3-11.8-19.6-18.1c-5.4-6.4-8-12.6-8-18.6s1.2-10.2 3.5-12.6s5.4-3.5 9-3.5s7.4 0.7 11.1 2s6.9 2.7 9.5 4 c10.1 5.4 20 12.1 29.7 20.1s16.3 13.4 19.6 16.1c14.8 10 30.5 19.3 47.3 27.7c16.8 8.4 33.9 14.6 51.3 18.6c17.4 4 34.9 5 52.3 3 c17.4-2 34.9-8.1 52.3-18.1c27.5-16.8 50.5-38.7 68.9-65.9s36.4-54.2 53.8-81c18.1-30.2 36.5-59.4 55.3-87.5 c18.8-28.2 37.2-57.3 55.3-87.5c13.4-20.8 26.2-41.8 38.2-62.9s24.8-42.1 38.2-62.9l-88.5 35.2c-29.5 12.8-59.7 26.7-90.5 41.8 s-58 33.7-81.5 55.8c-11.4 11.4-19.1 23.5-23.1 36.2c-4 12.8-0.3 25.8 11.1 39.2c4 5.4 8.7 10.6 14.1 15.6c5.4 5 6.4 11.2 3 18.6 c-2.7 5.4-7.1 8.7-13.1 10.1S240.6-420.5 236.5-424.5z M653-775.6c-6-2.7-11.8-1.2-17.1 4.5c-5.4 5.7-10.7 10.9-16.1 15.6 L653-775.6z" class="style0"/><path d="M574.9-486.1c27.4-21.6 55.7-42.4 85.1-62.3c29.4-19.9 60.6-36.2 93.7-49c6.2-2.2 13.6-4.5 22.2-7 c8.6-2.4 17.1-3.9 25.5-4.3c8.4-0.4 16.2 0.8 23.5 3.6c7.3 2.9 12.7 8.3 16.2 16.2c3.1 7.9 4 16.1 2.6 24.5 c-1.3 8.4-3.9 16.7-7.6 24.8c-3.8 8.2-8.3 15.9-13.6 23.2s-10.2 13.8-14.6 19.5c-14.1 19-29.1 37.3-45 55 c-15.9 17.7-31.6 35.5-47 53.6c-12.4 14.1-24.4 28.4-36.1 42.7c-11.7 14.4-23.3 29.3-34.8 44.7c-4.9 6.6-9.8 13.5-14.9 20.5 c-5.1 7.1-10 14.4-14.9 21.9c-3.5 4.9-7.9 11.4-13.2 19.5c-5.3 8.2-7.5 15.3-6.6 21.5c3.1-0.4 6.8-1.7 11.3-3.6 c4.4-2 8.8-4.3 13.2-7c4.4-2.6 8.5-5.2 12.3-7.6c3.7-2.4 6.5-4.1 8.3-5c9.7-6.2 19.3-12.3 28.8-18.2c9.5-6 19.1-12 28.8-18.2 c19.4-13.2 38.4-26.7 57-40.4c18.5-13.7 37.1-27.6 55.6-41.7c18.5-14.1 37-28.7 55.3-43.7c18.3-15 36.5-30 54.6-45 c15.4-13.7 31.1-27.3 47-40.7c15.9-13.5 30.9-27.7 45-42.7c2.2-3.1 4.4-5.8 6.6-8.3c2.2-2.4 5.1-4.1 8.6-5 c4.9-0.4 8.6 1.1 11.3 4.6c2.6 3.5 3.1 7.7 1.3 12.6c-1.8 3.5-4.5 6.9-8.3 9.9c-3.8 3.1-7.6 6-11.6 8.6 c-18.5 17.7-35.8 36.7-51.7 57c-15.9 20.3-31.1 40.8-45.7 61.6c-8.4 12.8-16.1 25.8-23.2 39.1c-7.1 13.2-13 26.9-17.9 41.1 c-2.6 7.5-4.9 15.9-6.6 25.2c-1.8 9.3-1.3 17.4 1.3 24.5l0.7 0.7c5.7 2.2 12.3 2.5 19.5 1c7.3-1.6 14-3.2 20.2-5 c24.3-6.6 48.3-15 72.2-25.2l64.2-31.1c1.8-0.9 3.7-1.4 6-1.7c2.2-0.2 4.1 0 5.6 0.7c1.5 0.7 2.4 1.9 2.6 3.6 c0.2 1.8-0.6 4.2-2.3 7.3c-2.2 4-7 7.1-14.2 9.3c-7.3 2.2-12.9 4.4-16.9 6.6c-10.6 5.3-21.4 10.9-32.5 16.9 c-11 6-22.4 11.7-34.1 17.2c-11.7 5.5-23.4 10.5-35.1 14.9c-11.7 4.4-23.5 7.5-35.4 9.3c-17.2 3.5-29.6 0.5-37.1-8.9 c-7.5-9.5-9.7-22.2-6.6-38.1c1.8-11 4.9-22.2 9.3-33.4c4.4-11.3 9.6-22.2 15.6-32.8c6-10.6 12.3-21 18.9-31.1 c6.6-10.2 13.2-19.9 19.9-29.1l23.2-32.5L861-378.2c-21.2 16.8-42.2 33.3-62.9 49.7c-20.8 16.3-42 32.7-63.6 49 c-9.7 7.5-19.8 15.3-30.1 23.5c-10.4 8.2-21 16-31.8 23.5c-10.8 7.5-22 14.5-33.4 20.9c-11.5 6.4-23.2 11.4-35.1 14.9 c-8.8 2.2-15.6 2.2-20.2 0c-4.6-2.2-7.7-5.9-9.3-10.9c-1.6-5.1-1.8-10.8-0.7-17.2c1.1-6.4 3.2-12.7 6.3-18.9 c10.6-22.1 24.3-42.6 41.1-61.6c16.8-19 33.1-37.7 49-56.3c17.2-19.4 34.5-38.7 52-57.9c17.4-19.2 34.1-39.2 50-59.9 c1.8-2.6 4.9-7 9.3-12.9c4.4-6 9-12.8 13.9-20.5c4.9-7.7 9.5-15.8 13.9-24.2c4.4-8.4 7.5-16 9.3-22.8c1.8-6.8 1.7-12.7-0.3-17.5 c-2-4.9-6.7-7.5-14.2-7.9c-11-0.4-22.4 0.7-34.1 3.3c-11.7 2.6-23.2 6.3-34.4 10.9s-22.2 9.9-32.8 15.9 c-10.6 6-20.5 11.8-29.8 17.5c-9.3 6.2-18.3 12.9-27.2 20.2c-8.8 7.3-17.7 14.7-26.5 22.2c-2.2 1.8-5.4 5-9.6 9.6 c-4.2 4.6-8.7 8.9-13.6 12.9c-4.9 4-9.6 6.6-14.2 7.9c-4.6 1.3-8.3-0.7-10.9-6C567.8-476.6 569.2-481.7 574.9-486.1z" class="style0"/><path d="M1067-486.1c26.5-20.3 53.5-40 81.1-58.9c27.6-19 57.1-35.1 88.4-48.3c5.7-2.6 12.4-5.3 19.9-7.9 c7.5-2.6 15.1-4.6 22.8-6c7.7-1.3 15.3-1.7 22.8-1c7.5 0.7 14.3 3 20.5 7c6.6 4.9 10.8 10.6 12.6 17.2c1.8 6.6 1.9 13.6 0.3 20.9 c-1.6 7.3-4 14.6-7.3 21.9c-3.3 7.3-6.5 13.6-9.6 18.9c-7.9 12.8-16.8 25.2-26.5 37.1c-9.7 11.9-19.4 23.8-29.1 35.8 c-10.2 13.7-20.3 27.5-30.5 41.4c-10.2 13.9-20.3 27.9-30.5 42.1l-45.7 62.3c15.4-13.7 30.9-27 46.4-40.1 c15.4-13 31.1-25.9 47-38.7c32.7-26.5 66.4-52.3 101.3-77.5c34.9-25.2 71.5-47 109.9-65.6c7.9-4 16-7.6 24.2-10.9 c8.2-3.3 16.7-5.4 25.5-6.3c3.5-0.4 7-0.3 10.3 0.3c3.3 0.7 6.1 1.8 8.3 3.3c2.2 1.6 3.4 3.6 3.6 6.3c0.2 2.6-1 6-3.6 9.9 c-4.4 6.2-9.9 11.9-16.6 17.2c-6.6 5.3-12.8 11-18.5 17.2c-20.3 23-39.7 46.4-58.3 70.2s-34.2 49-47 75.5 c-2.6 5.7-5.9 12.6-9.6 20.5c-3.8 7.9-7 16-9.6 24.2c-2.6 8.2-4.2 15.7-4.6 22.5c-0.4 6.9 1.1 12.3 4.6 16.2c4 4 9.4 5.7 16.2 5.3 c6.8-0.4 14-2 21.5-4.6c7.5-2.6 15-5.6 22.5-8.9c7.5-3.3 13.7-5.8 18.5-7.6c16.8-6.2 33.5-13.1 50.3-20.9 c16.8-7.7 33.3-15.8 49.7-24.2c2.6-1.8 5.3-1.9 7.9-0.3c2.6 1.6 3.7 3.9 3.3 7c0 3.5-2 6.2-6 7.9c-4 1.8-7.1 3.1-9.3 4l-55.6 26.5 c-16.3 7.5-33 15.6-50 24.2c-17 8.6-34.8 14-53.3 16.2c-12.4 1.3-21.5 0-27.5-4s-9.8-9.5-11.6-16.6c-1.8-7.1-1.8-15.2 0-24.5 c1.8-9.3 4.3-18.5 7.6-27.8s7-18 10.9-26.2c4-8.2 7.3-14.7 9.9-19.5c16.3-28.2 34.2-56.1 53.6-83.4c19.4-27.4 40.2-53.9 62.3-79.5 c-5.3 1.8-10.7 4-16.2 6.6c-5.5 2.6-10.7 5.1-15.6 7.3c-12.4 5.7-24.5 11.8-36.4 18.2c-11.9 6.4-23.6 13.4-35.1 20.9 c-21.2 13.2-41.9 27.4-62.3 42.4c-20.3 15-40.2 30.5-59.6 46.4c-20.8 15.9-40.5 32.3-59.3 49.3c-18.8 17-37.2 34.6-55.3 52.6 c-9.3 8.8-18.1 17.9-26.5 27.2c-8.4 9.3-16.8 19-25.2 29.1c-3.1 3.1-6.3 7.4-9.6 12.9c-3.3 5.5-7.4 8.9-12.3 10.3 c-4.9 1.3-8.9-0.2-12.3-4.6c-3.3-4.4-3.6-8.8-1-13.2c2.2-4.4 5.4-8.8 9.6-13.2c4.2-4.4 7.8-8.6 10.9-12.6c1.8-2.6 3.9-5.6 6.3-8.9 c2.4-3.3 6.2-8.4 11.3-15.2c5.1-6.8 12-16 20.9-27.5c8.8-11.5 20.5-26.9 35.1-46.4l44.4-59.6c12.4-17.2 24.9-34.2 37.7-51 c12.8-16.8 25.2-34 37.1-51.7c2.2-3.1 6-8.5 11.3-16.2c5.3-7.7 10.3-15.9 14.9-24.5c4.6-8.6 7.9-17 9.9-25.2 c2-8.2 0.8-14.2-3.6-18.2c-2.6-2.2-6-3.6-9.9-4.3s-8.3-0.8-12.9-0.3c-4.6 0.4-9.2 1.2-13.6 2.3c-4.4 1.1-7.9 1.9-10.6 2.3 c-19.4 4.9-38.2 11.7-56.3 20.5c-16.8 7.9-32.6 17.2-47.4 27.8c-14.8 10.6-29.3 21.9-43.4 33.8l-21.2 18.5 c-2.6 2.6-5.5 5.7-8.6 9.3c-3.1 3.5-6.4 5.7-9.9 6.6c-6.2 0.9-10.5-1.4-12.9-7C1060.9-477.4 1062.1-482.1 1067-486.1z" class="style0"/><path d="M1559-486.1c26.5-20.3 53.5-40 81.1-58.9c27.6-19 57.1-35.1 88.4-48.3c5.7-2.6 12.4-5.3 19.9-7.9 c7.5-2.6 15.1-4.6 22.8-6c7.7-1.3 15.3-1.7 22.8-1c7.5 0.7 14.3 3 20.5 7c6.6 4.9 10.8 10.6 12.6 17.2c1.8 6.6 1.9 13.6 0.3 20.9 c-1.6 7.3-4 14.6-7.3 21.9s-6.5 13.6-9.6 18.9c-7.9 12.8-16.8 25.2-26.5 37.1c-9.7 11.9-19.4 23.8-29.1 35.8 c-10.2 13.7-20.3 27.5-30.5 41.4c-10.2 13.9-20.3 27.9-30.5 42.1l-45.7 62.3c15.4-13.7 30.9-27 46.4-40.1 c15.4-13 31.1-25.9 47-38.7c32.7-26.5 66.4-52.3 101.3-77.5c34.9-25.2 71.5-47 109.9-65.6c7.9-4 16-7.6 24.2-10.9 c8.2-3.3 16.7-5.4 25.5-6.3c3.5-0.4 7-0.3 10.3 0.3c3.3 0.7 6.1 1.8 8.3 3.3c2.2 1.6 3.4 3.6 3.6 6.3c0.2 2.6-1 6-3.6 9.9 c-4.4 6.2-9.9 11.9-16.6 17.2c-6.6 5.3-12.8 11-18.5 17.2c-20.3 23-39.7 46.4-58.3 70.2c-18.5 23.8-34.2 49-47 75.5 c-2.6 5.7-5.9 12.6-9.6 20.5c-3.8 7.9-7 16-9.6 24.2c-2.6 8.2-4.2 15.7-4.6 22.5c-0.4 6.9 1.1 12.3 4.6 16.2c4 4 9.4 5.7 16.2 5.3 c6.8-0.4 14-2 21.5-4.6c7.5-2.6 15-5.6 22.5-8.9c7.5-3.3 13.7-5.8 18.5-7.6c16.8-6.2 33.5-13.1 50.3-20.9 c16.8-7.7 33.3-15.8 49.7-24.2c2.6-1.8 5.3-1.9 7.9-0.3c2.6 1.6 3.7 3.9 3.3 7c0 3.5-2 6.2-6 7.9c-4 1.8-7.1 3.1-9.3 4l-55.6 26.5 c-16.3 7.5-33 15.6-50 24.2c-17 8.6-34.8 14-53.3 16.2c-12.4 1.3-21.5 0-27.5-4c-6-4-9.8-9.5-11.6-16.6c-1.8-7.1-1.8-15.2 0-24.5 c1.8-9.3 4.3-18.5 7.6-27.8c3.3-9.3 7-18 10.9-26.2c4-8.2 7.3-14.7 9.9-19.5c16.3-28.2 34.2-56.1 53.6-83.4 c19.4-27.4 40.2-53.9 62.3-79.5c-5.3 1.8-10.7 4-16.2 6.6c-5.5 2.6-10.7 5.1-15.6 7.3c-12.4 5.7-24.5 11.8-36.4 18.2 c-11.9 6.4-23.6 13.4-35.1 20.9c-21.2 13.2-41.9 27.4-62.3 42.4c-20.3 15-40.2 30.5-59.6 46.4c-20.8 15.9-40.5 32.3-59.3 49.3 c-18.8 17-37.2 34.6-55.3 52.6c-9.3 8.8-18.1 17.9-26.5 27.2c-8.4 9.3-16.8 19-25.2 29.1c-3.1 3.1-6.3 7.4-9.6 12.9 c-3.3 5.5-7.4 8.9-12.3 10.3c-4.9 1.3-8.9-0.2-12.3-4.6c-3.3-4.4-3.6-8.8-1-13.2c2.2-4.4 5.4-8.8 9.6-13.2 c4.2-4.4 7.8-8.6 10.9-12.6c1.8-2.6 3.9-5.6 6.3-8.9c2.4-3.3 6.2-8.4 11.3-15.2c5.1-6.8 12-16 20.9-27.5 c8.8-11.5 20.5-26.9 35.1-46.4l44.4-59.6c12.4-17.2 24.9-34.2 37.7-51c12.8-16.8 25.2-34 37.1-51.7c2.2-3.1 6-8.5 11.3-16.2 c5.3-7.7 10.3-15.9 14.9-24.5c4.6-8.6 7.9-17 9.9-25.2c2-8.2 0.8-14.2-3.6-18.2c-2.6-2.2-6-3.6-9.9-4.3s-8.3-0.8-12.9-0.3 c-4.6 0.4-9.2 1.2-13.6 2.3c-4.4 1.1-7.9 1.9-10.6 2.3c-19.4 4.9-38.2 11.7-56.3 20.5c-16.8 7.9-32.6 17.2-47.4 27.8 c-14.8 10.6-29.3 21.9-43.4 33.8l-21.2 18.5c-2.6 2.6-5.5 5.7-8.6 9.3c-3.1 3.5-6.4 5.7-9.9 6.6c-6.2 0.9-10.5-1.4-12.9-7 C1552.9-477.4 1554.1-482.1 1559-486.1z" class="style0"/><path d="M2162.3-560.3c14.1 1.3 28.3 1.6 42.4 0.7c14.1-0.9 28-3.7 41.7-8.6h0.7c1.3-2.2 2.5-4.2 3.6-6 c1.1-1.8 2.5-3.7 4.3-6c3.1-4 7-9.2 11.6-15.6c4.6-6.4 9.7-12.4 15.2-17.9c5.5-5.5 11.5-9.9 17.9-13.2c6.4-3.3 12.7-3.9 18.9-1.7 c8.4 2.6 12.5 6.6 12.3 11.9c-0.2 5.3-2.3 10.9-6.3 16.9c-4 6-8.9 11.5-14.9 16.6c-6 5.1-10.5 8.5-13.6 10.3 c-4.9 3.5-10 6.4-15.6 8.6c-5.5 2.2-10.9 4.4-16.2 6.6c-7.1 9.7-13.8 19.4-20.2 29.1c-6.4 9.7-13.1 19.6-20.2 29.8l-84.1 131.8 c-6.2 10.6-12.6 21.2-19.2 31.8c-6.6 10.6-12.4 21.4-17.2 32.5c-1.3 2.6-3.3 6.6-6 11.9c-2.6 5.3-5.2 11-7.6 17.2 c-2.4 6.2-4.1 11.9-5 17.2c-0.9 5.3 0 9.3 2.6 11.9c3.1 2.6 10.6 3 22.5 1c11.9-2 24.7-4.6 38.4-7.9c13.7-3.3 26.5-6.9 38.4-10.6 c11.9-3.7 19.6-6.1 23.2-7c11.5-4 22.7-8.6 33.8-13.9c11-5.3 21.9-11 32.5-17.2l33.1-18.5c2.2-0.9 4.4-1.9 6.6-3 c2.2-1.1 4.4-0.8 6.6 1c2.6 1.3 3.9 3.5 3.6 6.6c-0.2 3.1-1.4 5.3-3.6 6.6c-20.3 10.6-40.6 21.1-60.9 31.5 c-20.3 10.4-41.3 19.3-62.9 26.8c-15.5 5.3-30.7 10.9-45.7 16.9c-15 6-30.9 10-47.7 12.3c-8.4 0.9-16.7 0.1-24.8-2.3 c-8.2-2.4-13.6-8.1-16.2-16.9c-1.8-5.3-2.3-10.6-1.7-15.9s2-10.6 4-15.9c2-5.3 4.3-10.5 7-15.6c2.6-5.1 5.3-9.8 7.9-14.2 c10.6-19 21.9-37.4 33.8-55.3c11.9-17.9 23.6-35.9 35.1-54c14.6-22.5 28.4-45.4 41.4-68.5c13-23.2 26.6-46 40.7-68.5 c-6.2 1.3-12.1 2.5-17.9 3.6c-5.7 1.1-11.7 2.1-17.9 3c-2.6 0.4-5.9 1.1-9.6 2c-3.8 0.9-7.6 1.7-11.6 2.3c-4 0.7-7.8 1-11.6 1 c-3.8 0-6.7-0.9-8.9-2.6c-2.6-1.8-4.3-4-5-6.6s-0.6-5.2 0.3-7.6c0.9-2.4 2.3-4.4 4.3-6C2156.7-559.5 2159.2-560.3 2162.3-560.3z M2302.1-601.3c-6.2 4-11.5 9.3-15.9 15.9c3.1-2.2 6.1-4.7 8.9-7.6C2298-595.9 2300.3-598.7 2302.1-601.3z" class="style0"/><path d="M2626.5-584.1c-9.3-4-18.9-5.5-28.8-4.6c-9.9 0.9-19.8 3.1-29.5 6.6c27.8-1.3 50.3 4.7 67.5 18.2 c17.2 13.5 24.7 34.1 22.5 61.9c-2.2 24.3-8.9 47.9-20.2 70.9c-11.3 23-23.7 44.6-37.4 64.9c-11.5 17.2-24.5 34.8-39.1 52.6 s-30.7 34.2-48.3 49c-17.7 14.8-36.5 27.4-56.6 37.7c-20.1 10.4-41.2 16.4-63.2 18.2c-10.2 0.9-20.6 0.3-31.5-1.7 c-10.8-2-20-7-27.5-14.9c-8.4-8.8-13.2-19.2-14.6-31.1c-1.3-11.9-1.1-23.6 0.7-35.1c4-23.8 11.6-46.9 22.8-69.2 c11.3-22.3 23.5-43.4 36.8-63.2c12.8-21.2 26.9-41.2 42.4-59.9c15.4-18.8 32-36.8 49.7-54c16.3-15.4 34.3-30.2 54-44.4 c19.6-14.1 40.7-23.2 63.2-27.2c7.1-1.3 15.6-2 25.5-2c9.9 0 17.8 2.4 23.5 7.3c2.6 2.2 4.1 4.7 4.3 7.6c0.2 2.9-0.3 5.4-1.7 7.6 c-1.3 2.2-3.3 3.9-6 5C2632.5-582.7 2629.6-582.8 2626.5-584.1z M2500.7-540.4c-19.4 15.9-37.2 33.2-53.3 52 c-16.1 18.8-31.2 38.5-45.4 59.3c-13.7 19.9-25.9 41-36.8 63.2c-10.8 22.3-18.4 45.4-22.8 69.2c-0.9 4.4-1.6 9.4-2 14.9 c-0.4 5.5-0.3 10.9 0.3 16.2c0.7 5.3 2 10.3 4 14.9c2 4.6 5.2 8.5 9.6 11.6c7.5 5.3 16 7.8 25.5 7.6c9.5-0.2 18.2-1.2 26.2-3 c23.8-4.9 45.9-14.1 66.2-27.8c20.3-13.7 39.1-28.5 56.3-44.4c18.1-16.8 34.5-34.9 49.3-54.3c14.8-19.4 27.5-40.2 38.1-62.3 c4-7.9 8.4-17.5 13.2-28.8c4.9-11.3 8.5-22.8 10.9-34.8c2.4-11.9 2.9-23.4 1.3-34.4c-1.6-11-6.5-20.3-14.9-27.8 c-7.9-7.5-17.9-11.4-29.8-11.6c-11.9-0.2-23 0.6-33.1 2.3c-4 0.9-7.5-0.2-10.6-3.3c-3.1-3.1-4.4-7.1-4-11.9 c-8.8 4.9-17.5 10.4-26.2 16.6C2514.3-550.8 2506.9-545.3 2500.7-540.4z" class="style0"/><path d="M2617.3-260.3c-4-5.7-6.2-12.1-6.6-19.2c-0.4-7.1 3.7-12.1 12.6-15.2c10.2-3.1 20.2-2.4 30.1 2 c9.9 4.4 18.9 8.8 26.8 13.2l0.7-0.7c8.8-23.4 19.3-45.9 31.5-67.5c12.1-21.6 25.1-42.8 38.7-63.6c12.8-19.9 26.3-39.4 40.4-58.6 c14.1-19.2 28.9-38.1 44.4-56.6c-30 9.7-54.2 18.4-72.5 26.2c-18.3 7.7-34.6 16.5-48.7 26.2c-2.2 1.3-4.5 3.2-7 5.6 c-2.4 2.4-5.1 4.9-7.9 7.3c-2.9 2.4-5.7 4.4-8.6 6c-2.9 1.6-5.6 1.9-8.3 1c-5.3-1.3-8.5-4.5-9.6-9.6c-1.1-5.1 0.8-8.9 5.6-11.6 c20.3-13.7 42.1-25.3 65.2-34.8c23.2-9.5 46.5-17.8 69.9-24.8c6.2-2.2 12.5-4.2 18.9-6c6.4-1.8 12.9-3.5 19.5-5.3 c13.2-15.4 27.5-30.3 42.7-44.7c15.2-14.3 32.1-25.3 50.7-32.8c2.6-0.9 5.7-1.8 9.3-2.6c3.5-0.9 7.2-1.4 10.9-1.7 c3.7-0.2 7.3 0.2 10.6 1.3c3.3 1.1 6.1 3 8.3 5.6c3.5 4.9 3.4 9.6-0.3 14.2c-3.8 4.6-8.5 5.6-14.2 3c-3.1-1.3-6.5-1.8-10.3-1.3 c-3.8 0.4-7.6 1.6-11.6 3.3c-4 1.8-7.8 3.8-11.6 6c-3.8 2.2-7 4.2-9.6 6c-16.8 11.5-31.8 23.8-45 37.1c26.9-5.3 53.4-7.7 79.5-7.3 c11.9 0.9 23.7 3 35.4 6.3c11.7 3.3 22.3 8.1 31.8 14.2c9.5 6.2 17.2 14.1 23.2 23.8c6 9.7 8.9 21.2 8.9 34.4 c0 11.9-2.2 23.3-6.6 34.1c-4.4 10.8-10.3 21-17.5 30.5c-7.3 9.5-15.3 18.3-24.2 26.5c-8.8 8.2-17.7 15.6-26.5 22.2 c-39.7 29.1-82.7 52.1-128.8 68.9c-46.1 16.8-93.3 28.9-141.4 36.4c17.7 7.5 35.5 13.9 53.6 19.2c18.1 5.3 36.4 9.7 55 13.2 c23.8 4.9 46.2 5.8 67.2 3c21-2.9 42.9-8.5 65.9-16.9c24.3-9.3 47.8-19.8 70.5-31.5c22.7-11.7 45.6-23.7 68.5-36.1 c1.3-0.9 3.2-2.1 5.6-3.6c2.4-1.5 5-3 7.6-4.3c2.6-1.3 5.3-2 7.9-2c2.6 0 4.6 1.3 6 4c2.2 4.9 1 8.5-3.6 10.9 c-4.6 2.4-8.3 4.1-10.9 5c-11.5 5.7-22.6 11.5-33.4 17.2c-10.8 5.7-21.8 11.7-32.8 17.9c-21.2 11.9-43 23.7-65.6 35.4 c-22.5 11.7-45.9 20.4-70.2 26.2c-12.4 3.1-24.8 4.5-37.4 4.3c-12.6-0.2-25.2-1.6-37.7-4c-12.6-2.4-24.9-5.6-37.1-9.6 c-12.1-4-24-8.2-35.4-12.6c-11.5-4.4-23-9.1-34.4-13.9c-11.5-4.9-22.5-9.7-33.1-14.6c-2.6 9.3-4 19-4 29.1c0 4.9 0.2 9.6 0.7 14.2 c0.4 4.6 2 8.7 4.6 12.3c2.6 3.5 4.7 7.3 6.3 11.3c1.5 4-0.6 7.7-6.3 11.3c-4 2.2-7.5 2.4-10.6 0.7c-3.1-1.8-5.6-4.4-7.6-7.9 c-2-3.5-3.6-7.4-5-11.6c-1.3-4.2-2-7.6-2-10.3c-1.8-8.4-2-16.7-0.7-24.8c1.3-8.2 3.1-16.5 5.3-24.8c-13.7 1.8-25.4 3.2-35.1 4.3 C2628.1-250.9 2621.2-253.7 2617.3-260.3z M2644.4-272.9l9.3-2.6c-8.8-3.1-15.7-3.5-20.5-1.3l3.3 2.6L2644.4-272.9z M2775.5-423.2 c-14.1 21.2-27.4 42.8-39.7 64.9c-12.4 22.1-23 44.8-31.8 68.2l-4.6 11.9c16.3-1.3 32.5-3.4 48.3-6.3c15.9-2.9 31.8-6.5 47.7-10.9 c32.2-8.8 63.7-20.3 94.4-34.4c30.7-14.1 58.8-32 84.4-53.6c9.7-7.9 20-18.2 30.8-30.8c10.8-12.6 19.2-25.8 25.2-39.7 c6-13.9 7.8-27.4 5.6-40.4c-2.2-13-11.9-23.9-29.1-32.8c-20.8-11-43.8-16.3-69.2-15.9c-25.4 0.4-50.2 3.5-74.5 9.3 c-16.3 17.2-31.7 35-46 53.3C2802.6-462.2 2788.8-443.1 2775.5-423.2z" class="style0"/></g></svg>